{"title":"Les.Signes.Vitaux.2009.DVDRip.XviD.AC3.HORiZON-ArtSubs","uid":6908217,"size":1648344091,"categoryP":"video","categoryS":"movies","magnet":"?xt=urn:btih:628efe6b2201f1f258a3c573461c3b58be0f0b58&amp;dn=Les.Signes.Vitaux.2009.DVDRip.XviD.AC3.HORiZON-ArtSubs&amp;tr=udp%3A%2F%2Ftracker.openbittorrent.com%3A80&amp;tr=udp%3A%2F%2Fopen.demonii.com%3A1337&amp;tr=udp%3A%2F%2Ftracker.coppersurfer.tk%3A6969&amp;tr=udp%3A%2F%2Fexodus.desync.com%3A6969","seeders":1,"leechers":0,"uploader":"lletaif","files":3,"time":1324680845,"description":"Title: Les Signes Vitaux (2009) Aka Vital Signs\n\nDirector: Sophie Deraspe\n\nWriter: Sophie Deraspe\n\nStars: Marie-HÃƒÂ©lÃƒÂ¨ne Bellavance, Francis Ducharme and Suzanne St-Michel\n\nCountry: Canada\n\nPlot: Triggered by the death of a family member a young woman embarks on a singular journey of helping people who are about to die. The dying have nothing to lose and need lasting moments of intimacy that Simone finds herself willing to give at no cost. But Boris won\\'t let her get away with it quite that easily. He realizes how well she hides behind those intense but short lived relationships. He won\\'t hesitate to provoke her in a violent burst.\n\nImdb: http://www.imdb.com/title/tt1593295/\n\n\nSUBTITLE: ENGLISH (Sub/Idx)\n\nRip Spect:\nGeneral\nComplete name              : Les.Signes.Vitaux.2009.DVDRip.XviD.AC3.HORiZON-ArtSubs\nFormat                           : AVI\nFormat/Info                      : Audio Video Interleave\nFile size                        : 1.53 GiB\nDuration                         : 1h 27mn\nOverall bit rate                 : 2 503 Kbps\nWriting application              : FairUse Wizard - http://fairusewizard.com\nWriting library                  : The best and REALLY easy backup tool\n\nVideo\nID                               : 0\nFormat                           : MPEG-4 Visual\nFormat profile                   : Advanced Simple@L5\nFormat settings, BVOP            : 1\nFormat settings, QPel            : No\nFormat settings, GMC             : No warppoints\nFormat settings, Matrix          : Default (MPEG)\nMuxing mode                      : Packed bitstream\nCodec ID                         : XVID\nCodec ID/Hint                    : XviD\nDuration                         : 1h 27mn\nBit rate                         : 2 301 Kbps\nWidth                            : 688 pixels\nHeight                           : 384 pixels\nDisplay aspect ratio             : 16:9\nFrame rate                       : 23.976 fps\nColor space                      : YUV\nChroma subsampling               : 4:2:0\nBit depth                        : 8 bits\nScan type                        : Progressive\nCompression mode                 : Lossy\nBits/(Pixel*Frame)               : 0.363\nStream size                      : 1.41 GiB (92%)\nWriting library                  : XviD 1.2.0.dev47 (UTC 2006-11-01)\n\nAudio\nID                               : 1\nFormat                           : AC-3\nFormat/Info                      : Audio Coding 3\nMode extension                   : CM (complete main)\nCodec ID                         : 2000\nDuration                         : 1h 27mn\nBit rate mode                    : Constant\nBit rate                         : 192 Kbps\nChannel(s)                       : 2 channels\nChannel positions                : Front: L R\nSampling rate                    : 48.0 KHz\nBit depth                        : 16 bits\nCompression mode                 : Lossy\nStream size                      : 121 MiB (8%)\nAlignment                        : Split accross interleaves\nInterleave, duration             : 42 ms (1.00 video frame)\nInterleave, preload duration     : 500 ms\n","torrent":{"xt":"urn:btih:628efe6b2201f1f258a3c573461c3b58be0f0b58","amp;dn":"Les.Signes.Vitaux.2009.DVDRip.XviD.AC3.HORiZON-ArtSubs","amp;tr":["udp%3A%2F%2Ftracker.openbittorrent.com%3A80","udp%3A%2F%2Fopen.demonii.com%3A1337","udp%3A%2F%2Ftracker.coppersurfer.tk%3A6969","udp%3A%2F%2Fexodus.desync.com%3A6969"],"infoHash":"628efe6b2201f1f258a3c573461c3b58be0f0b58","infoHashBuffer":{"type":"Buffer","data":[98,142,254,107,34,1,241,242,88,163,197,115,70,28,59,88,190,15,11,88]},"announce":[],"urlList":[]}}